<svg width="1200" height="900" viewBox="0 0 1200 900" fill="none" xmlns="http://www.w3.org/2000/svg">
  <defs>
    <linearGradient id="bg" x1="94" y1="82" x2="1050" y2="808" gradientUnits="userSpaceOnUse">
      <stop stop-color="#FFF8EF"/>
      <stop offset="0.55" stop-color="#F8FBFF"/>
      <stop offset="1" stop-color="#E0F0FF"/>
    </linearGradient>
    <linearGradient id="panel" x1="158" y1="124" x2="1002" y2="722" gradientUnits="userSpaceOnUse">
      <stop stop-color="#13263A"/>
      <stop offset="1" stop-color="#244C73"/>
    </linearGradient>
    <linearGradient id="glass" x1="0" y1="0" x2="1" y2="1">
      <stop stop-color="#FFFFFF" stop-opacity="0.92"/>
      <stop offset="1" stop-color="#DDEFFF" stop-opacity="0.8"/>
    </linearGradient>
    <linearGradient id="warm" x1="0" y1="0" x2="1" y2="1">
      <stop stop-color="#FFB45C"/>
      <stop offset="1" stop-color="#FF7A59"/>
    </linearGradient>
    <linearGradient id="cool" x1="0" y1="0" x2="1" y2="1">
      <stop stop-color="#87D6FF"/>
      <stop offset="1" stop-color="#2F7EEA"/>
    </linearGradient>
    <filter id="shadow" x="74" y="92" width="1052" height="714" filterUnits="userSpaceOnUse" color-interpolation-filters="sRGB">
      <feDropShadow dx="0" dy="30" stdDeviation="28" flood-color="#5C87B2" flood-opacity="0.22"/>
    </filter>
  </defs>

  <rect width="1200" height="900" rx="48" fill="url(#bg)"/>
  <circle cx="170" cy="172" r="112" fill="#FFE2B8"/>
  <circle cx="1030" cy="730" r="138" fill="#D7EBFF"/>
  <circle cx="1042" cy="168" r="72" fill="#EAF5FF"/>

  <g filter="url(#shadow)">
    <rect x="126" y="124" width="948" height="558" rx="38" fill="url(#panel)"/>
    <rect x="126" y="124" width="948" height="558" rx="38" stroke="#C8E0F7" stroke-width="3"/>

    <rect x="176" y="176" width="356" height="246" rx="30" fill="url(#glass)"/>
    <text x="214" y="234" fill="#F9854F" font-family="Segoe UI, Arial, sans-serif" font-size="24" letter-spacing="4">SERVICE FLOW</text>
    <text x="214" y="308" fill="#17314A" font-family="Segoe UI, Arial, sans-serif" font-size="56" font-weight="700">Design to</text>
    <text x="214" y="372" fill="#17314A" font-family="Segoe UI, Arial, sans-serif" font-size="56" font-weight="700">Growth</text>
    <rect x="214" y="394" width="182" height="14" rx="7" fill="#FFD4A3"/>
    <rect x="214" y="394" width="118" height="14" rx="7" fill="url(#warm)"/>

    <rect x="586" y="176" width="440" height="150" rx="28" fill="#102337" fill-opacity="0.72" stroke="#7FB8E8" stroke-opacity="0.4" stroke-width="2"/>
    <text x="622" y="226" fill="#BFE4FF" font-family="Segoe UI, Arial, sans-serif" font-size="22" letter-spacing="3">CHANNELS CONNECTED</text>
    <path d="M628 274H744" stroke="#6DC7FF" stroke-width="18" stroke-linecap="round"/>
    <path d="M780 274H930" stroke="#FF9B6F" stroke-width="18" stroke-linecap="round"/>
    <path d="M628 304H876" stroke="#D7EDFF" stroke-width="12" stroke-linecap="round" opacity="0.78"/>

    <rect x="176" y="470" width="220" height="146" rx="26" fill="url(#glass)"/>
    <rect x="418" y="430" width="284" height="186" rx="28" fill="#F7FBFF"/>
    <rect x="724" y="454" width="302" height="162" rx="28" fill="url(#glass)"/>

    <circle cx="236" cy="524" r="26" fill="#FFF1DF"/>
    <path d="M225 524H247" stroke="#FF8B58" stroke-width="6" stroke-linecap="round"/>
    <path d="M236 513V535" stroke="#FF8B58" stroke-width="6" stroke-linecap="round"/>
    <text x="218" y="572" fill="#5E7691" font-family="Segoe UI, Arial, sans-serif" font-size="18" letter-spacing="3">BUILD</text>
    <text x="218" y="607" fill="#16324B" font-family="Segoe UI, Arial, sans-serif" font-size="34" font-weight="700">Web + App</text>

    <circle cx="478" cy="486" r="22" fill="#E6F5FF"/>
    <path d="M467 486H489" stroke="#2F7EEA" stroke-width="6" stroke-linecap="round"/>
    <path d="M478 475V497" stroke="#2F7EEA" stroke-width="6" stroke-linecap="round"/>
    <text x="516" y="490" fill="#5E7691" font-family="Segoe UI, Arial, sans-serif" font-size="18" letter-spacing="3">AUTOMATE</text>
    <text x="516" y="528" fill="#16324B" font-family="Segoe UI, Arial, sans-serif" font-size="36" font-weight="700">AI Agents</text>
    <rect x="458" y="554" width="204" height="14" rx="7" fill="#D7EAFB"/>
    <rect x="458" y="554" width="136" height="14" rx="7" fill="url(#cool)"/>

    <circle cx="784" cy="512" r="24" fill="#FFF1DF"/>
    <path d="M774 522L784 502L794 522" stroke="#FF8B58" stroke-width="6" stroke-linecap="round" stroke-linejoin="round"/>
    <text x="820" y="518" fill="#5E7691" font-family="Segoe UI, Arial, sans-serif" font-size="18" letter-spacing="3">GROW</text>
    <text x="820" y="556" fill="#16324B" font-family="Segoe UI, Arial, sans-serif" font-size="36" font-weight="700">SEO + Ads</text>
    <path d="M820 584H944" stroke="#C8DDF0" stroke-width="12" stroke-linecap="round"/>
    <path d="M820 584H902" stroke="url(#warm)" stroke-width="12" stroke-linecap="round"/>

    <path d="M396 544C420 532 438 520 454 504" stroke="#8CBCE3" stroke-width="6" stroke-linecap="round" stroke-dasharray="10 12"/>
    <path d="M700 520C720 522 740 522 760 518" stroke="#8CBCE3" stroke-width="6" stroke-linecap="round" stroke-dasharray="10 12"/>

    <rect x="456" y="656" width="290" height="18" rx="9" fill="#D9EAF8"/>
    <rect x="528" y="656" width="146" height="18" rx="9" fill="url(#cool)"/>
  </g>
</svg>
